<svg width="23" height="23" viewBox="0 0 23 23" fill="none" xmlns="http://www.w3.org/2000/svg">
<path d="M15.2084 1H7.34356C3.72452 1 0.789551 4.02694 0.789551 7.75938V15.8706C0.789551 19.6031 3.72452 22.63 7.34356 22.63H15.2084C18.8274 22.63 21.7624 19.6031 21.7624 15.8706V7.75938C21.7624 4.02694 18.8274 1 15.2084 1ZM19.7962 15.8706C19.7962 18.4798 17.7382 20.6022 15.2084 20.6022H7.34356C4.81371 20.6022 2.75575 18.4798 2.75575 15.8706V7.75938C2.75575 5.15026 4.81371 3.02782 7.34356 3.02782H15.2084C17.7382 3.02782 19.7962 5.15026 19.7962 7.75938V15.8706Z" fill="white"/>
<path d="M11.2766 6.4077C8.38096 6.4077 6.0334 8.82882 6.0334 11.8152C6.0334 14.8016 8.38096 17.2227 11.2766 17.2227C14.1722 17.2227 16.5198 14.8016 16.5198 11.8152C16.5198 8.82882 14.1722 6.4077 11.2766 6.4077ZM11.2766 15.1949C9.47016 15.1949 7.9996 13.6783 7.9996 11.8152C7.9996 9.95088 9.47016 8.43551 11.2766 8.43551C13.0831 8.43551 14.5536 9.95088 14.5536 11.8152C14.5536 13.6783 13.0831 15.1949 11.2766 15.1949Z" fill="white"/>
<path d="M17.0435 6.40818C17.3331 6.40818 17.5679 6.16608 17.5679 5.86742C17.5679 5.56877 17.3331 5.32667 17.0435 5.32667C16.7539 5.32667 16.5192 5.56877 16.5192 5.86742C16.5192 6.16608 16.7539 6.40818 17.0435 6.40818Z" fill="white"/>
<path d="M15.2084 1H7.34356C3.72452 1 0.789551 4.02694 0.789551 7.75938V15.8706C0.789551 19.6031 3.72452 22.63 7.34356 22.63H15.2084C18.8274 22.63 21.7624 19.6031 21.7624 15.8706V7.75938C21.7624 4.02694 18.8274 1 15.2084 1ZM19.7962 15.8706C19.7962 18.4798 17.7382 20.6022 15.2084 20.6022H7.34356C4.81371 20.6022 2.75575 18.4798 2.75575 15.8706V7.75938C2.75575 5.15026 4.81371 3.02782 7.34356 3.02782H15.2084C17.7382 3.02782 19.7962 5.15026 19.7962 7.75938V15.8706Z" stroke="white" stroke-width="0.5"/>
<path d="M11.2766 6.4077C8.38096 6.4077 6.0334 8.82882 6.0334 11.8152C6.0334 14.8016 8.38096 17.2227 11.2766 17.2227C14.1722 17.2227 16.5198 14.8016 16.5198 11.8152C16.5198 8.82882 14.1722 6.4077 11.2766 6.4077ZM11.2766 15.1949C9.47016 15.1949 7.9996 13.6783 7.9996 11.8152C7.9996 9.95088 9.47016 8.43551 11.2766 8.43551C13.0831 8.43551 14.5536 9.95088 14.5536 11.8152C14.5536 13.6783 13.0831 15.1949 11.2766 15.1949Z" stroke="white" stroke-width="0.5"/>
<path d="M17.0435 6.40818C17.3331 6.40818 17.5679 6.16608 17.5679 5.86742C17.5679 5.56877 17.3331 5.32667 17.0435 5.32667C16.7539 5.32667 16.5192 5.56877 16.5192 5.86742C16.5192 6.16608 16.7539 6.40818 17.0435 6.40818Z" stroke="white" stroke-width="0.5"/>
</svg>
