<svg width="382" height="382" viewBox="0 0 382 382" fill="none" xmlns="http://www.w3.org/2000/svg">
<rect width="382" height="382" rx="191" fill="#353597"/>
<rect x="93" y="134" width="59" height="59" fill="white"/>
<path d="M145.507 128H143.617L126.313 101.624V128H124.423V98.558H126.313L143.617 124.85V98.558H145.507V128ZM154.326 100.112V112.418H166.086V114.014H154.326V126.404H167.346V128H152.436V98.516H167.346V100.112H154.326ZM181.593 128.294C179.689 128.294 178.023 127.958 176.595 127.286C175.167 126.614 174.047 125.704 173.235 124.556C172.451 123.408 172.003 122.134 171.891 120.734H173.865C174.089 122.274 174.803 123.646 176.007 124.85C177.239 126.054 179.101 126.656 181.593 126.656C183.049 126.656 184.309 126.39 185.373 125.858C186.465 125.326 187.305 124.598 187.893 123.674C188.481 122.75 188.775 121.728 188.775 120.608C188.775 119.18 188.425 118.046 187.725 117.206C187.053 116.366 186.199 115.736 185.163 115.316C184.155 114.896 182.783 114.448 181.047 113.972C179.143 113.468 177.603 112.964 176.427 112.46C175.279 111.956 174.299 111.186 173.487 110.15C172.703 109.086 172.311 107.644 172.311 105.824C172.311 104.424 172.675 103.15 173.403 102.002C174.159 100.826 175.223 99.902 176.595 99.23C177.967 98.558 179.549 98.222 181.341 98.222C183.945 98.222 186.045 98.866 187.641 100.154C189.237 101.442 190.189 103.024 190.497 104.9H188.481C188.313 104.144 187.935 103.374 187.347 102.59C186.787 101.806 185.975 101.162 184.911 100.658C183.875 100.126 182.629 99.86 181.173 99.86C179.213 99.86 177.561 100.406 176.217 101.498C174.873 102.562 174.201 103.99 174.201 105.782C174.201 107.21 174.551 108.358 175.251 109.226C175.951 110.066 176.805 110.71 177.813 111.158C178.849 111.578 180.235 112.012 181.971 112.46C183.903 112.992 185.429 113.51 186.549 114.014C187.697 114.49 188.663 115.26 189.447 116.324C190.259 117.36 190.665 118.774 190.665 120.566C190.665 121.882 190.315 123.128 189.615 124.304C188.915 125.48 187.879 126.446 186.507 127.202C185.163 127.93 183.525 128.294 181.593 128.294ZM204.849 128.294C202.945 128.294 201.279 127.958 199.851 127.286C198.423 126.614 197.303 125.704 196.491 124.556C195.707 123.408 195.259 122.134 195.147 120.734H197.121C197.345 122.274 198.059 123.646 199.263 124.85C200.495 126.054 202.357 126.656 204.849 126.656C206.305 126.656 207.565 126.39 208.629 125.858C209.721 125.326 210.561 124.598 211.149 123.674C211.737 122.75 212.031 121.728 212.031 120.608C212.031 119.18 211.681 118.046 210.981 117.206C210.309 116.366 209.455 115.736 208.419 115.316C207.411 114.896 206.039 114.448 204.303 113.972C202.399 113.468 200.859 112.964 199.683 112.46C198.535 111.956 197.555 111.186 196.743 110.15C195.959 109.086 195.567 107.644 195.567 105.824C195.567 104.424 195.931 103.15 196.659 102.002C197.415 100.826 198.479 99.902 199.851 99.23C201.223 98.558 202.805 98.222 204.597 98.222C207.201 98.222 209.301 98.866 210.897 100.154C212.493 101.442 213.445 103.024 213.753 104.9H211.737C211.569 104.144 211.191 103.374 210.603 102.59C210.043 101.806 209.231 101.162 208.167 100.658C207.131 100.126 205.885 99.86 204.429 99.86C202.469 99.86 200.817 100.406 199.473 101.498C198.129 102.562 197.457 103.99 197.457 105.782C197.457 107.21 197.807 108.358 198.507 109.226C199.207 110.066 200.061 110.71 201.069 111.158C202.105 111.578 203.491 112.012 205.227 112.46C207.159 112.992 208.685 113.51 209.805 114.014C210.953 114.49 211.919 115.26 212.703 116.324C213.515 117.36 213.921 118.774 213.921 120.566C213.921 121.882 213.571 123.128 212.871 124.304C212.171 125.48 211.135 126.446 209.763 127.202C208.419 127.93 206.781 128.294 204.849 128.294ZM221.469 100.112V112.418H233.229V114.014H221.469V126.404H234.489V128H219.579V98.516H234.489V100.112H221.469ZM248.736 128.294C246.832 128.294 245.166 127.958 243.738 127.286C242.31 126.614 241.19 125.704 240.378 124.556C239.594 123.408 239.146 122.134 239.034 120.734H241.008C241.232 122.274 241.946 123.646 243.15 124.85C244.382 126.054 246.244 126.656 248.736 126.656C250.192 126.656 251.452 126.39 252.516 125.858C253.608 125.326 254.448 124.598 255.036 123.674C255.624 122.75 255.918 121.728 255.918 120.608C255.918 119.18 255.568 118.046 254.868 117.206C254.196 116.366 253.342 115.736 252.306 115.316C251.298 114.896 249.926 114.448 248.19 113.972C246.286 113.468 244.746 112.964 243.57 112.46C242.422 111.956 241.442 111.186 240.63 110.15C239.846 109.086 239.454 107.644 239.454 105.824C239.454 104.424 239.818 103.15 240.546 102.002C241.302 100.826 242.366 99.902 243.738 99.23C245.11 98.558 246.692 98.222 248.484 98.222C251.088 98.222 253.188 98.866 254.784 100.154C256.38 101.442 257.332 103.024 257.64 104.9H255.624C255.456 104.144 255.078 103.374 254.49 102.59C253.93 101.806 253.118 101.162 252.054 100.658C251.018 100.126 249.772 99.86 248.316 99.86C246.356 99.86 244.704 100.406 243.36 101.498C242.016 102.562 241.344 103.99 241.344 105.782C241.344 107.21 241.694 108.358 242.394 109.226C243.094 110.066 243.948 110.71 244.956 111.158C245.992 111.578 247.378 112.012 249.114 112.46C251.046 112.992 252.572 113.51 253.692 114.014C254.84 114.49 255.806 115.26 256.59 116.324C257.402 117.36 257.808 118.774 257.808 120.566C257.808 121.882 257.458 123.128 256.758 124.304C256.058 125.48 255.022 126.446 253.65 127.202C252.306 127.93 250.668 128.294 248.736 128.294ZM175.656 175.506H165.744L164.274 180H154.488L165.366 150.264H176.118L186.954 180H177.126L175.656 175.506ZM173.388 168.492L170.7 160.218L168.012 168.492H173.388ZM217.591 180H208.267L198.397 165.048V180H189.073V150.264H198.397L208.267 165.468V150.264H217.591V180ZM236.293 180.294C233.493 180.294 230.917 179.636 228.565 178.32C226.241 177.004 224.393 175.184 223.021 172.86C221.649 170.536 220.963 167.918 220.963 165.006C220.963 162.094 221.649 159.476 223.021 157.152C224.393 154.828 226.241 153.022 228.565 151.734C230.917 150.418 233.493 149.76 236.293 149.76C239.093 149.76 241.655 150.418 243.979 151.734C246.303 153.022 248.137 154.828 249.481 157.152C250.853 159.476 251.539 162.094 251.539 165.006C251.539 167.918 250.853 170.536 249.481 172.86C248.137 175.184 246.289 177.004 243.937 178.32C241.613 179.636 239.065 180.294 236.293 180.294ZM236.293 171.6C238.141 171.6 239.569 171.012 240.577 169.836C241.585 168.632 242.089 167.022 242.089 165.006C242.089 162.962 241.585 161.352 240.577 160.176C239.569 158.972 238.141 158.37 236.293 158.37C234.417 158.37 232.975 158.972 231.967 160.176C230.959 161.352 230.455 162.962 230.455 165.006C230.455 167.022 230.959 168.632 231.967 169.836C232.975 171.012 234.417 171.6 236.293 171.6ZM266.537 180.294C262.981 180.294 260.041 179.468 257.717 177.816C255.421 176.136 254.175 173.686 253.979 170.466H263.891C264.031 172.174 264.787 173.028 266.159 173.028C266.663 173.028 267.083 172.916 267.419 172.692C267.783 172.44 267.965 172.062 267.965 171.558C267.965 170.858 267.587 170.298 266.831 169.878C266.075 169.43 264.899 168.926 263.303 168.366C261.399 167.694 259.817 167.036 258.557 166.392C257.325 165.748 256.261 164.81 255.365 163.578C254.469 162.346 254.035 160.764 254.063 158.832C254.063 156.9 254.553 155.262 255.533 153.918C256.541 152.546 257.899 151.51 259.607 150.81C261.343 150.11 263.289 149.76 265.445 149.76C269.085 149.76 271.969 150.6 274.097 152.28C276.253 153.96 277.387 156.326 277.499 159.378H267.461C267.433 158.538 267.223 157.936 266.831 157.572C266.439 157.208 265.963 157.026 265.403 157.026C265.011 157.026 264.689 157.166 264.437 157.446C264.185 157.698 264.059 158.062 264.059 158.538C264.059 159.21 264.423 159.77 265.151 160.218C265.907 160.638 267.097 161.156 268.721 161.772C270.597 162.472 272.137 163.144 273.341 163.788C274.573 164.432 275.637 165.328 276.533 166.476C277.429 167.624 277.877 169.066 277.877 170.802C277.877 172.622 277.429 174.26 276.533 175.716C275.637 177.144 274.335 178.264 272.627 179.076C270.919 179.888 268.889 180.294 266.537 180.294ZM78.487 232H76.597L59.293 205.624V232H57.403V202.558H59.293L76.597 228.85V202.558H78.487V232ZM98.5627 232.336C95.8467 232.336 93.3967 231.706 91.2127 230.446C89.0287 229.158 87.3207 227.366 86.0887 225.07C84.8567 222.774 84.2407 220.184 84.2407 217.3C84.2407 214.388 84.8567 211.798 86.0887 209.53C87.3207 207.234 89.0287 205.456 91.2127 204.196C93.3967 202.908 95.8467 202.264 98.5627 202.264C101.279 202.264 103.729 202.908 105.913 204.196C108.097 205.456 109.805 207.234 111.037 209.53C112.269 211.798 112.885 214.388 112.885 217.3C112.885 220.184 112.269 222.774 111.037 225.07C109.805 227.366 108.097 229.158 105.913 230.446C103.729 231.706 101.279 232.336 98.5627 232.336ZM98.5627 230.656C100.887 230.656 102.987 230.11 104.863 229.018C106.739 227.926 108.209 226.372 109.273 224.356C110.365 222.34 110.911 219.988 110.911 217.3C110.911 214.584 110.365 212.218 109.273 210.202C108.209 208.186 106.739 206.632 104.863 205.54C102.987 204.448 100.887 203.902 98.5627 203.902C96.2387 203.902 94.1387 204.448 92.2627 205.54C90.3867 206.632 88.9027 208.186 87.8107 210.202C86.7187 212.218 86.1727 214.584 86.1727 217.3C86.1727 219.988 86.7187 222.34 87.8107 224.356C88.9027 226.372 90.3867 227.926 92.2627 229.018C94.1387 230.11 96.2387 230.656 98.5627 230.656ZM157.962 203.146V232H156.072V207.094L144.984 232H143.472L132.342 207.094V232H130.452V203.146H132.468L144.228 229.522L155.988 203.146H157.962ZM166.795 204.112V216.418H178.555V218.014H166.795V230.404H179.815V232H164.905V202.516H179.815V204.112H166.795ZM201.454 232L193.894 219.442H193.726H187.426V232H185.536V202.516H193.642C196.918 202.516 199.368 203.286 200.992 204.826C202.644 206.366 203.47 208.41 203.47 210.958C203.47 213.226 202.826 215.102 201.538 216.586C200.278 218.042 198.43 218.938 195.994 219.274L203.722 232H201.454ZM187.426 217.846H193.726C196.33 217.846 198.276 217.216 199.564 215.956C200.852 214.696 201.496 213.03 201.496 210.958C201.496 206.45 198.878 204.196 193.642 204.196H187.426V217.846ZM207.903 217.3C207.903 214.388 208.505 211.798 209.709 209.53C210.941 207.234 212.621 205.442 214.749 204.154C216.905 202.866 219.313 202.222 221.973 202.222C225.333 202.222 228.161 203.006 230.457 204.574C232.753 206.142 234.433 208.34 235.497 211.168H233.313C232.473 208.928 231.073 207.164 229.113 205.876C227.181 204.56 224.801 203.902 221.973 203.902C219.705 203.902 217.647 204.448 215.799 205.54C213.951 206.604 212.495 208.158 211.431 210.202C210.367 212.218 209.835 214.584 209.835 217.3C209.835 219.988 210.367 222.34 211.431 224.356C212.495 226.344 213.951 227.884 215.799 228.976C217.647 230.068 219.705 230.614 221.973 230.614C224.801 230.614 227.181 229.97 229.113 228.682C231.073 227.366 232.473 225.588 233.313 223.348H235.497C234.433 226.176 232.753 228.374 230.457 229.942C228.161 231.51 225.333 232.294 221.973 232.294C219.313 232.294 216.905 231.664 214.749 230.404C212.621 229.116 210.941 227.338 209.709 225.07C208.505 222.774 207.903 220.184 207.903 217.3ZM258.115 224.44H244.129L241.315 232H239.257L250.093 203.188H252.193L262.987 232H260.929L258.115 224.44ZM257.527 222.844L251.143 205.666L244.717 222.844H257.527ZM276.005 202.516C280.989 202.516 284.825 203.818 287.513 206.422C290.229 209.026 291.587 212.652 291.587 217.3C291.587 221.948 290.229 225.56 287.513 228.136C284.825 230.712 280.989 232 276.005 232H267.731V202.516H276.005ZM276.005 230.404C280.457 230.404 283.845 229.256 286.169 226.96C288.493 224.636 289.655 221.416 289.655 217.3C289.655 213.156 288.493 209.922 286.169 207.598C283.845 205.274 280.457 204.112 276.005 204.112H269.621V230.404H276.005ZM310.449 232.336C307.733 232.336 305.283 231.706 303.099 230.446C300.915 229.158 299.207 227.366 297.975 225.07C296.743 222.774 296.127 220.184 296.127 217.3C296.127 214.388 296.743 211.798 297.975 209.53C299.207 207.234 300.915 205.456 303.099 204.196C305.283 202.908 307.733 202.264 310.449 202.264C313.165 202.264 315.615 202.908 317.799 204.196C319.983 205.456 321.691 207.234 322.923 209.53C324.155 211.798 324.771 214.388 324.771 217.3C324.771 220.184 324.155 222.774 322.923 225.07C321.691 227.366 319.983 229.158 317.799 230.446C315.615 231.706 313.165 232.336 310.449 232.336ZM310.449 230.656C312.773 230.656 314.873 230.11 316.749 229.018C318.625 227.926 320.095 226.372 321.159 224.356C322.251 222.34 322.797 219.988 322.797 217.3C322.797 214.584 322.251 212.218 321.159 210.202C320.095 208.186 318.625 206.632 316.749 205.54C314.873 204.448 312.773 203.902 310.449 203.902C308.125 203.902 306.025 204.448 304.149 205.54C302.273 206.632 300.789 208.186 299.697 210.202C298.605 212.218 298.059 214.584 298.059 217.3C298.059 219.988 298.605 222.34 299.697 224.356C300.789 226.372 302.273 227.926 304.149 229.018C306.025 230.11 308.125 230.656 310.449 230.656ZM114.848 276.44H100.861L98.0475 284H95.9895L106.826 255.188H108.926L119.72 284H117.662L114.848 276.44ZM114.26 274.844L107.876 257.666L101.45 274.844H114.26ZM170.715 254.264V284H161.433V269.174L156.855 284H148.875L144.297 269.174V284H134.973V254.264H146.397L152.949 272.114L159.333 254.264H170.715ZM189.874 284L184.288 273.332H184.246V284H174.922V254.264H188.782C191.19 254.264 193.248 254.698 194.956 255.566C196.664 256.406 197.938 257.568 198.778 259.052C199.646 260.508 200.08 262.16 200.08 264.008C200.08 265.996 199.52 267.76 198.4 269.3C197.308 270.84 195.726 271.946 193.654 272.618L200.122 284H189.874ZM184.246 267.116H187.942C188.838 267.116 189.51 266.92 189.958 266.528C190.406 266.108 190.63 265.464 190.63 264.596C190.63 263.812 190.392 263.196 189.916 262.748C189.468 262.3 188.81 262.076 187.942 262.076H184.246V267.116ZM202.219 269.09C202.219 266.15 202.807 263.532 203.983 261.236C205.187 258.94 206.895 257.162 209.107 255.902C211.319 254.614 213.923 253.97 216.919 253.97C219.495 253.97 221.791 254.46 223.807 255.44C225.851 256.392 227.503 257.75 228.763 259.514C230.051 261.278 230.905 263.336 231.325 265.688H221.497C221.049 264.708 220.405 263.952 219.565 263.42C218.753 262.86 217.815 262.58 216.751 262.58C215.183 262.58 213.937 263.168 213.013 264.344C212.117 265.52 211.669 267.102 211.669 269.09C211.669 271.078 212.117 272.66 213.013 273.836C213.937 275.012 215.183 275.6 216.751 275.6C217.815 275.6 218.753 275.334 219.565 274.802C220.405 274.242 221.049 273.472 221.497 272.492H231.325C230.905 274.844 230.051 276.902 228.763 278.666C227.503 280.43 225.851 281.802 223.807 282.782C221.791 283.734 219.495 284.21 216.919 284.21C213.923 284.21 211.319 283.58 209.107 282.32C206.895 281.032 205.187 279.24 203.983 276.944C202.807 274.648 202.219 272.03 202.219 269.09ZM244.006 276.944H252.994V284H234.682V254.264H244.006V276.944ZM274.996 279.506H265.084L263.614 284H253.828L264.706 254.264H275.458L286.294 284H276.466L274.996 279.506ZM272.728 272.492L270.04 264.218L267.352 272.492H272.728Z" fill="white"/>
<path d="M102.367 158.034V149.298H116.605V180H106.819V158.034H102.367ZM139.807 156.144L130.231 180H120.655L130.315 157.278H119.479V149.298H139.807V156.144Z" fill="#353597"/>
</svg>
